<svg width="46" height="37" viewBox="0 0 46 37" fill="none" xmlns="http://www.w3.org/2000/svg">
<path fill-rule="evenodd" clip-rule="evenodd" d="M18.81 2H27.191C30.28 2 32 3.78 32 6.83V17.16C32 20.26 30.28 22 27.191 22H18.81C15.77 22 14 20.26 14 17.16V6.83C14 3.78 15.77 2 18.81 2ZM19.08 6.66V6.65H22.069C22.5 6.65 22.85 7 22.85 7.429C22.85 7.87 22.5 8.22 22.069 8.22H19.08C18.649 8.22 18.3 7.87 18.3 7.44C18.3 7.01 18.649 6.66 19.08 6.66ZM19.08 12.74H26.92C27.35 12.74 27.7 12.39 27.7 11.96C27.7 11.53 27.35 11.179 26.92 11.179H19.08C18.649 11.179 18.3 11.53 18.3 11.96C18.3 12.39 18.649 12.74 19.08 12.74ZM19.08 17.31H26.92C27.319 17.27 27.62 16.929 27.62 16.53C27.62 16.12 27.319 15.78 26.92 15.74H19.08C18.78 15.71 18.49 15.85 18.33 16.11C18.17 16.36 18.17 16.69 18.33 16.95C18.49 17.2 18.78 17.35 19.08 17.31Z" fill="#F2F2F2"/>
<path d="M3.96 35.14C2.83333 35.14 1.97333 34.8267 1.38 34.2C0.793333 33.5733 0.5 32.6833 0.5 31.53C0.5 30.9567 0.59 30.4467 0.77 30C0.95 29.5467 1.19667 29.1667 1.51 28.86C1.82333 28.5467 2.19667 28.31 2.63 28.15C3.06333 27.99 3.53333 27.91 4.04 27.91C4.33333 27.91 4.6 27.9333 4.84 27.98C5.08 28.02 5.29 28.07 5.47 28.13C5.65 28.1833 5.8 28.24 5.92 28.3C6.04 28.36 6.12667 28.4067 6.18 28.44L5.73 29.7C5.51667 29.5867 5.26667 29.49 4.98 29.41C4.7 29.33 4.38 29.29 4.02 29.29C3.78 29.29 3.54333 29.33 3.31 29.41C3.08333 29.49 2.88 29.62 2.7 29.8C2.52667 29.9733 2.38667 30.2 2.28 30.48C2.17333 30.76 2.12 31.1 2.12 31.5C2.12 31.82 2.15333 32.12 2.22 32.4C2.29333 32.6733 2.40667 32.91 2.56 33.11C2.72 33.31 2.92667 33.47 3.18 33.59C3.43333 33.7033 3.74 33.76 4.1 33.76C4.32667 33.76 4.53 33.7467 4.71 33.72C4.89 33.6933 5.05 33.6633 5.19 33.63C5.33 33.59 5.45333 33.5467 5.56 33.5C5.66667 33.4533 5.76333 33.41 5.85 33.37L6.28 34.62C6.06 34.7533 5.75 34.8733 5.35 34.98C4.95 35.0867 4.48667 35.14 3.96 35.14ZM11.8222 32.36C11.8222 32.7733 11.7622 33.1533 11.6422 33.5C11.5222 33.84 11.3489 34.1333 11.1222 34.38C10.8955 34.62 10.6222 34.8067 10.3022 34.94C9.98885 35.0733 9.63552 35.14 9.24219 35.14C8.85552 35.14 8.50219 35.0733 8.18219 34.94C7.86885 34.8067 7.59885 34.62 7.37219 34.38C7.14552 34.1333 6.96885 33.84 6.84219 33.5C6.71552 33.1533 6.65219 32.7733 6.65219 32.36C6.65219 31.9467 6.71552 31.57 6.84219 31.23C6.97552 30.89 7.15552 30.6 7.38219 30.36C7.61552 30.12 7.88885 29.9333 8.20219 29.8C8.52219 29.6667 8.86885 29.6 9.24219 29.6C9.62219 29.6 9.96885 29.6667 10.2822 29.8C10.6022 29.9333 10.8755 30.12 11.1022 30.36C11.3289 30.6 11.5055 30.89 11.6322 31.23C11.7589 31.57 11.8222 31.9467 11.8222 32.36ZM10.3022 32.36C10.3022 31.9 10.2089 31.54 10.0222 31.28C9.84219 31.0133 9.58219 30.88 9.24219 30.88C8.90219 30.88 8.63885 31.0133 8.45219 31.28C8.26552 31.54 8.17219 31.9 8.17219 32.36C8.17219 32.82 8.26552 33.1867 8.45219 33.46C8.63885 33.7267 8.90219 33.86 9.24219 33.86C9.58219 33.86 9.84219 33.7267 10.0222 33.46C10.2089 33.1867 10.3022 32.82 10.3022 32.36ZM12.8114 29.92C13.0647 29.8467 13.3914 29.78 13.7914 29.72C14.1914 29.6533 14.6114 29.62 15.0514 29.62C15.4981 29.62 15.8681 29.68 16.1614 29.8C16.4614 29.9133 16.6981 30.0767 16.8714 30.29C17.0447 30.5033 17.1681 30.7567 17.2414 31.05C17.3147 31.3433 17.3514 31.67 17.3514 32.03V35H15.8614V32.21C15.8614 31.73 15.7981 31.39 15.6714 31.19C15.5447 30.99 15.3081 30.89 14.9614 30.89C14.8547 30.89 14.7414 30.8967 14.6214 30.91C14.5014 30.9167 14.3947 30.9267 14.3014 30.94V35H12.8114V29.92ZM18.4851 28.43L19.9751 28.19V29.74H21.7651V30.98H19.9751V32.83C19.9751 33.1433 20.0284 33.3933 20.1351 33.58C20.2484 33.7667 20.4717 33.86 20.8051 33.86C20.9651 33.86 21.1284 33.8467 21.2951 33.82C21.4684 33.7867 21.6251 33.7433 21.7651 33.69L21.9751 34.85C21.7951 34.9233 21.5951 34.9867 21.3751 35.04C21.1551 35.0933 20.8851 35.12 20.5651 35.12C20.1584 35.12 19.8217 35.0667 19.5551 34.96C19.2884 34.8467 19.0751 34.6933 18.9151 34.5C18.7551 34.3 18.6417 34.06 18.5751 33.78C18.5151 33.5 18.4851 33.19 18.4851 32.85V28.43ZM25.9834 31.06C25.8501 31.0267 25.6934 30.9933 25.5134 30.96C25.3334 30.92 25.1401 30.9 24.9334 30.9C24.8401 30.9 24.7268 30.91 24.5934 30.93C24.4668 30.9433 24.3701 30.96 24.3034 30.98V35H22.8134V30.02C23.0801 29.9267 23.3934 29.84 23.7534 29.76C24.1201 29.6733 24.5268 29.63 24.9734 29.63C25.0534 29.63 25.1501 29.6367 25.2634 29.65C25.3768 29.6567 25.4901 29.67 25.6034 29.69C25.7168 29.7033 25.8301 29.7233 25.9434 29.75C26.0568 29.77 26.1534 29.7967 26.2334 29.83L25.9834 31.06ZM28.7795 33.96C28.9262 33.96 29.0662 33.9567 29.1995 33.95C29.3329 33.9433 29.4395 33.9333 29.5195 33.92V32.79C29.4595 32.7767 29.3695 32.7633 29.2495 32.75C29.1295 32.7367 29.0195 32.73 28.9195 32.73C28.7795 32.73 28.6462 32.74 28.5195 32.76C28.3995 32.7733 28.2929 32.8033 28.1995 32.85C28.1062 32.8967 28.0329 32.96 27.9795 33.04C27.9262 33.12 27.8995 33.22 27.8995 33.34C27.8995 33.5733 27.9762 33.7367 28.1295 33.83C28.2895 33.9167 28.5062 33.96 28.7795 33.96ZM28.6595 29.6C29.0995 29.6 29.4662 29.65 29.7595 29.75C30.0529 29.85 30.2862 29.9933 30.4595 30.18C30.6395 30.3667 30.7662 30.5933 30.8395 30.86C30.9129 31.1267 30.9495 31.4233 30.9495 31.75V34.85C30.7362 34.8967 30.4395 34.95 30.0595 35.01C29.6795 35.0767 29.2195 35.11 28.6795 35.11C28.3395 35.11 28.0295 35.08 27.7495 35.02C27.4762 34.96 27.2395 34.8633 27.0395 34.73C26.8395 34.59 26.6862 34.41 26.5795 34.19C26.4729 33.97 26.4195 33.7 26.4195 33.38C26.4195 33.0733 26.4795 32.8133 26.5995 32.6C26.7262 32.3867 26.8929 32.2167 27.0995 32.09C27.3062 31.9633 27.5429 31.8733 27.8095 31.82C28.0762 31.76 28.3529 31.73 28.6395 31.73C28.8329 31.73 29.0029 31.74 29.1495 31.76C29.3029 31.7733 29.4262 31.7933 29.5195 31.82V31.68C29.5195 31.4267 29.4429 31.2233 29.2895 31.07C29.1362 30.9167 28.8695 30.84 28.4895 30.84C28.2362 30.84 27.9862 30.86 27.7395 30.9C27.4929 30.9333 27.2795 30.9833 27.0995 31.05L26.9095 29.85C26.9962 29.8233 27.1029 29.7967 27.2295 29.77C27.3629 29.7367 27.5062 29.71 27.6595 29.69C27.8129 29.6633 27.9729 29.6433 28.1395 29.63C28.3129 29.61 28.4862 29.6 28.6595 29.6ZM31.8819 32.37C31.8819 31.99 31.9419 31.6333 32.0619 31.3C32.1885 30.96 32.3685 30.6667 32.6019 30.42C32.8352 30.1667 33.1185 29.9667 33.4519 29.82C33.7852 29.6733 34.1652 29.6 34.5919 29.6C34.8719 29.6 35.1285 29.6267 35.3619 29.68C35.5952 29.7267 35.8219 29.7967 36.0419 29.89L35.7319 31.08C35.5919 31.0267 35.4385 30.98 35.2719 30.94C35.1052 30.9 34.9185 30.88 34.7119 30.88C34.2719 30.88 33.9419 31.0167 33.7219 31.29C33.5085 31.5633 33.4019 31.9233 33.4019 32.37C33.4019 32.8433 33.5019 33.21 33.7019 33.47C33.9085 33.73 34.2652 33.86 34.7719 33.86C34.9519 33.86 35.1452 33.8433 35.3519 33.81C35.5585 33.7767 35.7485 33.7233 35.9219 33.65L36.1319 34.87C35.9585 34.9433 35.7419 35.0067 35.4819 35.06C35.2219 35.1133 34.9352 35.14 34.6219 35.14C34.1419 35.14 33.7285 35.07 33.3819 34.93C33.0352 34.7833 32.7485 34.5867 32.5219 34.34C32.3019 34.0933 32.1385 33.8033 32.0319 33.47C31.9319 33.13 31.8819 32.7633 31.8819 32.37ZM36.9169 28.43L38.4069 28.19V29.74H40.1969V30.98H38.4069V32.83C38.4069 33.1433 38.4602 33.3933 38.5669 33.58C38.6802 33.7667 38.9035 33.86 39.2369 33.86C39.3969 33.86 39.5602 33.8467 39.7269 33.82C39.9002 33.7867 40.0569 33.7433 40.1969 33.69L40.4069 34.85C40.2269 34.9233 40.0269 34.9867 39.8069 35.04C39.5869 35.0933 39.3169 35.12 38.9969 35.12C38.5902 35.12 38.2535 35.0667 37.9869 34.96C37.7202 34.8467 37.5069 34.6933 37.3469 34.5C37.1869 34.3 37.0735 34.06 37.0069 33.78C36.9469 33.5 36.9169 33.19 36.9169 32.85V28.43ZM42.7552 33.93C43.0286 33.93 43.2219 33.9033 43.3352 33.85C43.4486 33.7967 43.5052 33.6933 43.5052 33.54C43.5052 33.42 43.4319 33.3167 43.2852 33.23C43.1386 33.1367 42.9152 33.0333 42.6152 32.92C42.3819 32.8333 42.1686 32.7433 41.9752 32.65C41.7886 32.5567 41.6286 32.4467 41.4952 32.32C41.3619 32.1867 41.2586 32.03 41.1852 31.85C41.1119 31.67 41.0752 31.4533 41.0752 31.2C41.0752 30.7067 41.2586 30.3167 41.6252 30.03C41.9919 29.7433 42.4952 29.6 43.1352 29.6C43.4552 29.6 43.7619 29.63 44.0552 29.69C44.3486 29.7433 44.5819 29.8033 44.7552 29.87L44.4952 31.03C44.3219 30.97 44.1319 30.9167 43.9252 30.87C43.7252 30.8233 43.4986 30.8 43.2452 30.8C42.7786 30.8 42.5452 30.93 42.5452 31.19C42.5452 31.25 42.5552 31.3033 42.5752 31.35C42.5952 31.3967 42.6352 31.4433 42.6952 31.49C42.7552 31.53 42.8352 31.5767 42.9352 31.63C43.0419 31.6767 43.1752 31.73 43.3352 31.79C43.6619 31.91 43.9319 32.03 44.1452 32.15C44.3586 32.2633 44.5252 32.39 44.6452 32.53C44.7719 32.6633 44.8586 32.8133 44.9052 32.98C44.9586 33.1467 44.9852 33.34 44.9852 33.56C44.9852 34.08 44.7886 34.4733 44.3952 34.74C44.0086 35.0067 43.4586 35.14 42.7452 35.14C42.2786 35.14 41.8886 35.1 41.5752 35.02C41.2686 34.94 41.0552 34.8733 40.9352 34.82L41.1852 33.61C41.4386 33.71 41.6986 33.79 41.9652 33.85C42.2319 33.9033 42.4952 33.93 42.7552 33.93Z" fill="#F2F2F2"/>
</svg>
