<svg width="44" height="37" viewBox="0 0 44 37" fill="none" xmlns="http://www.w3.org/2000/svg">
<path d="M3.91 35.15C3.39 35.15 2.92333 35.07 2.51 34.91C2.09667 34.75 1.74667 34.5167 1.46 34.21C1.17333 33.8967 0.953333 33.5167 0.8 33.07C0.646667 32.6233 0.57 32.11 0.57 31.53C0.57 30.95 0.656667 30.4367 0.83 29.99C1.01 29.5433 1.25333 29.1667 1.56 28.86C1.86667 28.5467 2.22667 28.31 2.64 28.15C3.05333 27.99 3.49667 27.91 3.97 27.91C4.25667 27.91 4.51667 27.9333 4.75 27.98C4.98333 28.02 5.18667 28.0667 5.36 28.12C5.53333 28.1733 5.67667 28.23 5.79 28.29C5.90333 28.35 5.98333 28.3933 6.03 28.42L5.66 29.45C5.5 29.35 5.27 29.2567 4.97 29.17C4.67667 29.0767 4.35667 29.03 4.01 29.03C3.71 29.03 3.43 29.0833 3.17 29.19C2.91 29.29 2.68333 29.4433 2.49 29.65C2.30333 29.8567 2.15667 30.1167 2.05 30.43C1.94333 30.7433 1.89 31.1067 1.89 31.52C1.89 31.8867 1.93 32.2233 2.01 32.53C2.09667 32.8367 2.22667 33.1033 2.4 33.33C2.57333 33.55 2.79333 33.7233 3.06 33.85C3.32667 33.97 3.64667 34.03 4.02 34.03C4.46667 34.03 4.83 33.9867 5.11 33.9C5.39 33.8067 5.60667 33.72 5.76 33.64L6.1 34.67C6.02 34.7233 5.91 34.7767 5.77 34.83C5.63667 34.8833 5.47667 34.9367 5.29 34.99C5.10333 35.0367 4.89333 35.0733 4.66 35.1C4.42667 35.1333 4.17667 35.15 3.91 35.15ZM11.585 32.38C11.585 32.7933 11.525 33.17 11.405 33.51C11.285 33.85 11.115 34.14 10.895 34.38C10.675 34.62 10.4083 34.8067 10.095 34.94C9.78833 35.0733 9.44833 35.14 9.075 35.14C8.70167 35.14 8.36167 35.0733 8.055 34.94C7.74833 34.8067 7.485 34.62 7.265 34.38C7.045 34.14 6.87167 33.85 6.745 33.51C6.625 33.17 6.565 32.7933 6.565 32.38C6.565 31.9667 6.625 31.5933 6.745 31.26C6.87167 30.92 7.045 30.63 7.265 30.39C7.49167 30.15 7.75833 29.9667 8.065 29.84C8.37167 29.7067 8.70833 29.64 9.075 29.64C9.44167 29.64 9.77833 29.7067 10.085 29.84C10.3983 29.9667 10.665 30.15 10.885 30.39C11.105 30.63 11.275 30.92 11.395 31.26C11.5217 31.5933 11.585 31.9667 11.585 32.38ZM10.345 32.38C10.345 31.86 10.2317 31.45 10.005 31.15C9.785 30.8433 9.475 30.69 9.075 30.69C8.675 30.69 8.36167 30.8433 8.135 31.15C7.915 31.45 7.805 31.86 7.805 32.38C7.805 32.9067 7.915 33.3233 8.135 33.63C8.36167 33.9367 8.675 34.09 9.075 34.09C9.475 34.09 9.785 33.9367 10.005 33.63C10.2317 33.3233 10.345 32.9067 10.345 32.38ZM12.6666 29.94C12.8999 29.8733 13.2032 29.81 13.5766 29.75C13.9499 29.69 14.3632 29.66 14.8166 29.66C15.2432 29.66 15.5999 29.72 15.8866 29.84C16.1732 29.9533 16.3999 30.1167 16.5666 30.33C16.7399 30.5367 16.8599 30.79 16.9266 31.09C16.9999 31.3833 17.0366 31.7067 17.0366 32.06V35H15.8266V32.25C15.8266 31.97 15.8066 31.7333 15.7666 31.54C15.7332 31.34 15.6732 31.18 15.5866 31.06C15.5066 30.9333 15.3932 30.8433 15.2466 30.79C15.1066 30.73 14.9332 30.7 14.7266 30.7C14.5732 30.7 14.4132 30.71 14.2466 30.73C14.0799 30.75 13.9566 30.7667 13.8766 30.78V35H12.6666V29.94ZM18.2912 28.39L19.5012 28.19V29.77H21.3612V30.78H19.5012V32.91C19.5012 33.33 19.5678 33.63 19.7012 33.81C19.8345 33.99 20.0612 34.08 20.3812 34.08C20.6012 34.08 20.7945 34.0567 20.9612 34.01C21.1345 33.9633 21.2712 33.92 21.3712 33.88L21.5712 34.84C21.4312 34.9 21.2478 34.96 21.0212 35.02C20.7945 35.0867 20.5278 35.12 20.2212 35.12C19.8478 35.12 19.5345 35.07 19.2812 34.97C19.0345 34.87 18.8378 34.7267 18.6912 34.54C18.5445 34.3467 18.4412 34.1167 18.3812 33.85C18.3212 33.5767 18.2912 33.2667 18.2912 32.92V28.39ZM25.3459 30.86C25.2459 30.8267 25.1059 30.7933 24.9259 30.76C24.7525 30.72 24.5492 30.7 24.3159 30.7C24.1825 30.7 24.0392 30.7133 23.8859 30.74C23.7392 30.7667 23.6359 30.79 23.5759 30.81V35H22.3659V30.02C22.5992 29.9333 22.8892 29.8533 23.2359 29.78C23.5892 29.7 23.9792 29.66 24.4059 29.66C24.4859 29.66 24.5792 29.6667 24.6859 29.68C24.7925 29.6867 24.8992 29.7 25.0059 29.72C25.1125 29.7333 25.2159 29.7533 25.3159 29.78C25.4159 29.8 25.4959 29.82 25.5559 29.84L25.3459 30.86ZM28.0741 34.15C28.4474 34.15 28.7307 34.13 28.9241 34.09V32.75C28.8574 32.73 28.7607 32.71 28.6341 32.69C28.5074 32.67 28.3674 32.66 28.2141 32.66C28.0807 32.66 27.9441 32.67 27.8041 32.69C27.6707 32.71 27.5474 32.7467 27.4341 32.8C27.3274 32.8533 27.2407 32.93 27.1741 33.03C27.1074 33.1233 27.0741 33.2433 27.0741 33.39C27.0741 33.6767 27.1641 33.8767 27.3441 33.99C27.5241 34.0967 27.7674 34.15 28.0741 34.15ZM27.9741 29.64C28.3741 29.64 28.7107 29.69 28.9841 29.79C29.2574 29.89 29.4741 30.03 29.6341 30.21C29.8007 30.39 29.9174 30.61 29.9841 30.87C30.0574 31.1233 30.0941 31.4033 30.0941 31.71V34.88C29.9074 34.92 29.6241 34.9667 29.2441 35.02C28.8707 35.08 28.4474 35.11 27.9741 35.11C27.6607 35.11 27.3741 35.08 27.1141 35.02C26.8541 34.96 26.6307 34.8633 26.4441 34.73C26.2641 34.5967 26.1207 34.4233 26.0141 34.21C25.9141 33.9967 25.8641 33.7333 25.8641 33.42C25.8641 33.12 25.9207 32.8667 26.0341 32.66C26.1541 32.4533 26.3141 32.2867 26.5141 32.16C26.7141 32.0267 26.9441 31.9333 27.2041 31.88C27.4707 31.82 27.7474 31.79 28.0341 31.79C28.1674 31.79 28.3074 31.8 28.4541 31.82C28.6007 31.8333 28.7574 31.86 28.9241 31.9V31.7C28.9241 31.56 28.9074 31.4267 28.8741 31.3C28.8407 31.1733 28.7807 31.0633 28.6941 30.97C28.6141 30.87 28.5041 30.7933 28.3641 30.74C28.2307 30.6867 28.0607 30.66 27.8541 30.66C27.5741 30.66 27.3174 30.68 27.0841 30.72C26.8507 30.76 26.6607 30.8067 26.5141 30.86L26.3641 29.88C26.5174 29.8267 26.7407 29.7733 27.0341 29.72C27.3274 29.6667 27.6407 29.64 27.9741 29.64ZM31.1209 32.39C31.1209 32.0033 31.1809 31.6433 31.3009 31.31C31.4209 30.97 31.5909 30.6767 31.8109 30.43C32.0375 30.1833 32.3109 29.99 32.6309 29.85C32.9509 29.71 33.3109 29.64 33.7109 29.64C34.2042 29.64 34.6709 29.73 35.1109 29.91L34.8509 30.9C34.7109 30.84 34.5509 30.79 34.3709 30.75C34.1975 30.71 34.0109 30.69 33.8109 30.69C33.3375 30.69 32.9775 30.84 32.7309 31.14C32.4842 31.4333 32.3609 31.85 32.3609 32.39C32.3609 32.91 32.4775 33.3233 32.7109 33.63C32.9442 33.93 33.3375 34.08 33.8909 34.08C34.0975 34.08 34.3009 34.06 34.5009 34.02C34.7009 33.98 34.8742 33.93 35.0209 33.87L35.1909 34.87C35.0575 34.9367 34.8542 34.9967 34.5809 35.05C34.3142 35.1033 34.0375 35.13 33.7509 35.13C33.3042 35.13 32.9142 35.0633 32.5809 34.93C32.2542 34.79 31.9809 34.6 31.7609 34.36C31.5475 34.1133 31.3875 33.8233 31.2809 33.49C31.1742 33.15 31.1209 32.7833 31.1209 32.39ZM35.9027 28.39L37.1127 28.19V29.77H38.9727V30.78H37.1127V32.91C37.1127 33.33 37.1793 33.63 37.3127 33.81C37.446 33.99 37.6727 34.08 37.9927 34.08C38.2127 34.08 38.406 34.0567 38.5727 34.01C38.746 33.9633 38.8827 33.92 38.9827 33.88L39.1827 34.84C39.0427 34.9 38.8593 34.96 38.6327 35.02C38.406 35.0867 38.1393 35.12 37.8327 35.12C37.4593 35.12 37.146 35.07 36.8927 34.97C36.646 34.87 36.4493 34.7267 36.3027 34.54C36.156 34.3467 36.0527 34.1167 35.9927 33.85C35.9327 33.5767 35.9027 33.2667 35.9027 32.92V28.39ZM41.2873 34.13C41.6073 34.13 41.8407 34.0933 41.9873 34.02C42.134 33.94 42.2073 33.8067 42.2073 33.62C42.2073 33.4467 42.1273 33.3033 41.9673 33.19C41.814 33.0767 41.5573 32.9533 41.1973 32.82C40.9773 32.74 40.774 32.6567 40.5873 32.57C40.4073 32.4767 40.2507 32.37 40.1173 32.25C39.984 32.13 39.8773 31.9867 39.7973 31.82C39.724 31.6467 39.6873 31.4367 39.6873 31.19C39.6873 30.71 39.864 30.3333 40.2173 30.06C40.5707 29.78 41.0507 29.64 41.6573 29.64C41.964 29.64 42.2573 29.67 42.5373 29.73C42.8173 29.7833 43.0273 29.8367 43.1673 29.89L42.9473 30.87C42.814 30.81 42.644 30.7567 42.4373 30.71C42.2307 30.6567 41.9907 30.63 41.7173 30.63C41.4707 30.63 41.2707 30.6733 41.1173 30.76C40.964 30.84 40.8873 30.9667 40.8873 31.14C40.8873 31.2267 40.9007 31.3033 40.9273 31.37C40.9607 31.4367 41.014 31.5 41.0873 31.56C41.1607 31.6133 41.2573 31.67 41.3773 31.73C41.4973 31.7833 41.644 31.84 41.8173 31.9C42.104 32.0067 42.3473 32.1133 42.5473 32.22C42.7473 32.32 42.9107 32.4367 43.0373 32.57C43.1707 32.6967 43.2673 32.8433 43.3273 33.01C43.3873 33.1767 43.4173 33.3767 43.4173 33.61C43.4173 34.11 43.2307 34.49 42.8573 34.75C42.4907 35.0033 41.964 35.13 41.2773 35.13C40.8173 35.13 40.4473 35.09 40.1673 35.01C39.8873 34.9367 39.6907 34.8767 39.5773 34.83L39.7873 33.82C39.9673 33.8933 40.1807 33.9633 40.4273 34.03C40.6807 34.0967 40.9673 34.13 41.2873 34.13Z" fill="#A6A6A6"/>
<path fill-rule="evenodd" clip-rule="evenodd" d="M18.1375 22C17.7255 22 17.3345 21.968 16.9665 21.905L16.7485 21.864C14.3775 21.371 12.9995 19.555 12.9995 16.791V7.209C12.9995 6.875 13.0195 6.555 13.0595 6.249C13.4085 3.564 15.2535 2 18.1375 2H25.8625C29.0585 2 30.9695 3.92 30.9995 7.132V7.209V16.791C30.9995 20.048 29.0835 22 25.8625 22H18.1375ZM18.1375 3.457C15.6815 3.457 14.4365 4.72 14.4365 7.209V16.791C14.4365 19.28 15.6815 20.543 18.1375 20.543H25.8535C28.3085 20.543 29.5455 19.28 29.5455 16.791V7.209C29.5455 4.72 28.3085 3.457 25.8535 3.457H18.1375ZM26.3055 16.234C26.3055 15.834 25.9865 15.51 25.5925 15.51H18.3815C17.9875 15.51 17.6675 15.834 17.6675 16.234C17.6675 16.634 17.9875 16.958 18.3815 16.958H25.5925C25.9865 16.958 26.3055 16.634 26.3055 16.234ZM25.5925 11.271C25.8675 11.241 26.1365 11.373 26.2835 11.61C26.4305 11.849 26.4305 12.151 26.2835 12.39C26.1365 12.627 25.8675 12.759 25.5925 12.729H18.3815C18.0155 12.687 17.7385 12.374 17.7385 12C17.7385 11.626 18.0155 11.312 18.3815 11.271H25.5925ZM21.7765 7.771C21.7765 7.397 21.4995 7.083 21.1335 7.042H18.3905C18.0235 7.083 17.7465 7.397 17.7465 7.771C17.7465 8.144 18.0235 8.458 18.3905 8.499H21.1335C21.4995 8.458 21.7765 8.144 21.7765 7.771Z" fill="#A6A6A6"/>
</svg>
