<svg width="33" height="37" viewBox="0 0 33 37" fill="none" xmlns="http://www.w3.org/2000/svg">
<path d="M5.1 28.07H6.36V35H5.1V31.93H2.09V35H0.83V28.07H2.09V30.84H5.1V28.07ZM9.0125 35H7.8025V29.77H9.0125V35ZM9.1425 28.24C9.1425 28.4667 9.06917 28.6467 8.9225 28.78C8.77583 28.9133 8.6025 28.98 8.4025 28.98C8.19583 28.98 8.01917 28.9133 7.8725 28.78C7.72583 28.6467 7.6525 28.4667 7.6525 28.24C7.6525 28.0067 7.72583 27.8233 7.8725 27.69C8.01917 27.5567 8.19583 27.49 8.4025 27.49C8.6025 27.49 8.77583 27.5567 8.9225 27.69C9.06917 27.8233 9.1425 28.0067 9.1425 28.24ZM11.7012 34.13C12.0212 34.13 12.2545 34.0933 12.4012 34.02C12.5478 33.94 12.6212 33.8067 12.6212 33.62C12.6212 33.4467 12.5412 33.3033 12.3812 33.19C12.2278 33.0767 11.9712 32.9533 11.6112 32.82C11.3912 32.74 11.1878 32.6567 11.0012 32.57C10.8212 32.4767 10.6645 32.37 10.5312 32.25C10.3978 32.13 10.2912 31.9867 10.2112 31.82C10.1378 31.6467 10.1012 31.4367 10.1012 31.19C10.1012 30.71 10.2778 30.3333 10.6312 30.06C10.9845 29.78 11.4645 29.64 12.0712 29.64C12.3778 29.64 12.6712 29.67 12.9512 29.73C13.2312 29.7833 13.4412 29.8367 13.5812 29.89L13.3612 30.87C13.2278 30.81 13.0578 30.7567 12.8512 30.71C12.6445 30.6567 12.4045 30.63 12.1312 30.63C11.8845 30.63 11.6845 30.6733 11.5312 30.76C11.3778 30.84 11.3012 30.9667 11.3012 31.14C11.3012 31.2267 11.3145 31.3033 11.3412 31.37C11.3745 31.4367 11.4278 31.5 11.5012 31.56C11.5745 31.6133 11.6712 31.67 11.7912 31.73C11.9112 31.7833 12.0578 31.84 12.2312 31.9C12.5178 32.0067 12.7612 32.1133 12.9612 32.22C13.1612 32.32 13.3245 32.4367 13.4512 32.57C13.5845 32.6967 13.6812 32.8433 13.7412 33.01C13.8012 33.1767 13.8312 33.3767 13.8312 33.61C13.8312 34.11 13.6445 34.49 13.2712 34.75C12.9045 35.0033 12.3778 35.13 11.6912 35.13C11.2312 35.13 10.8612 35.09 10.5812 35.01C10.3012 34.9367 10.1045 34.8767 9.99117 34.83L10.2012 33.82C10.3812 33.8933 10.5945 33.9633 10.8412 34.03C11.0945 34.0967 11.3812 34.13 11.7012 34.13ZM14.7365 28.39L15.9465 28.19V29.77H17.8065V30.78H15.9465V32.91C15.9465 33.33 16.0132 33.63 16.1465 33.81C16.2798 33.99 16.5065 34.08 16.8265 34.08C17.0465 34.08 17.2398 34.0567 17.4065 34.01C17.5798 33.9633 17.7165 33.92 17.8165 33.88L18.0165 34.84C17.8765 34.9 17.6932 34.96 17.4665 35.02C17.2398 35.0867 16.9732 35.12 16.6665 35.12C16.2932 35.12 15.9798 35.07 15.7265 34.97C15.4798 34.87 15.2832 34.7267 15.1365 34.54C14.9898 34.3467 14.8865 34.1167 14.8265 33.85C14.7665 33.5767 14.7365 33.2667 14.7365 32.92V28.39ZM23.424 32.38C23.424 32.7933 23.364 33.17 23.244 33.51C23.124 33.85 22.954 34.14 22.734 34.38C22.514 34.62 22.2473 34.8067 21.934 34.94C21.6273 35.0733 21.2873 35.14 20.914 35.14C20.5407 35.14 20.2007 35.0733 19.894 34.94C19.5873 34.8067 19.324 34.62 19.104 34.38C18.884 34.14 18.7107 33.85 18.584 33.51C18.464 33.17 18.404 32.7933 18.404 32.38C18.404 31.9667 18.464 31.5933 18.584 31.26C18.7107 30.92 18.884 30.63 19.104 30.39C19.3307 30.15 19.5973 29.9667 19.904 29.84C20.2107 29.7067 20.5473 29.64 20.914 29.64C21.2807 29.64 21.6173 29.7067 21.924 29.84C22.2373 29.9667 22.504 30.15 22.724 30.39C22.944 30.63 23.114 30.92 23.234 31.26C23.3607 31.5933 23.424 31.9667 23.424 32.38ZM22.184 32.38C22.184 31.86 22.0707 31.45 21.844 31.15C21.624 30.8433 21.314 30.69 20.914 30.69C20.514 30.69 20.2007 30.8433 19.974 31.15C19.754 31.45 19.644 31.86 19.644 32.38C19.644 32.9067 19.754 33.3233 19.974 33.63C20.2007 33.9367 20.514 34.09 20.914 34.09C21.314 34.09 21.624 33.9367 21.844 33.63C22.0707 33.3233 22.184 32.9067 22.184 32.38ZM27.4855 30.86C27.3855 30.8267 27.2455 30.7933 27.0655 30.76C26.8922 30.72 26.6889 30.7 26.4555 30.7C26.3222 30.7 26.1789 30.7133 26.0255 30.74C25.8789 30.7667 25.7755 30.79 25.7155 30.81V35H24.5055V30.02C24.7389 29.9333 25.0289 29.8533 25.3755 29.78C25.7289 29.7 26.1189 29.66 26.5455 29.66C26.6255 29.66 26.7189 29.6667 26.8255 29.68C26.9322 29.6867 27.0389 29.7 27.1455 29.72C27.2522 29.7333 27.3555 29.7533 27.4555 29.78C27.5555 29.8 27.6355 29.82 27.6955 29.84L27.4855 30.86ZM32.8195 29.77C32.2795 31.7567 31.6529 33.5567 30.9395 35.17C30.8062 35.47 30.6695 35.7267 30.5295 35.94C30.3895 36.1533 30.2329 36.33 30.0595 36.47C29.8862 36.61 29.6929 36.71 29.4795 36.77C29.2662 36.8367 29.0195 36.87 28.7395 36.87C28.5529 36.87 28.3662 36.85 28.1795 36.81C27.9995 36.77 27.8629 36.7267 27.7695 36.68L27.9895 35.71C28.2295 35.8033 28.4662 35.85 28.6995 35.85C29.0129 35.85 29.2562 35.7733 29.4295 35.62C29.6095 35.4733 29.7662 35.2433 29.8995 34.93C29.5195 34.1967 29.1529 33.3967 28.7995 32.53C28.4529 31.6633 28.1429 30.7433 27.8695 29.77H29.1595C29.2262 30.05 29.3062 30.3533 29.3995 30.68C29.4995 31.0067 29.6062 31.34 29.7195 31.68C29.8329 32.0133 29.9529 32.3467 30.0795 32.68C30.2062 33.0133 30.3329 33.3233 30.4595 33.61C30.6729 33.0167 30.8729 32.3867 31.0595 31.72C31.2462 31.0467 31.4162 30.3967 31.5695 29.77H32.8195Z" fill="#A6A6A6"/>
<path fill-rule="evenodd" clip-rule="evenodd" d="M16 2.00049C10.4768 2.00049 6 6.47727 6 12.0005C6 17.5237 10.4768 22.0005 16 22.0005C21.5232 22.0005 26 17.5237 26 12.0005C26 6.47727 21.5232 2.00049 16 2.00049ZM16 3.50049C20.6948 3.50049 24.5 7.3057 24.5 12.0005C24.5 16.6953 20.6948 20.5005 16 20.5005C11.3052 20.5005 7.5 16.6953 7.5 12.0005C7.5 7.3057 11.3052 3.50049 16 3.50049ZM16.4048 7.74512C16.3551 7.37904 16.0413 7.09689 15.6616 7.09689C15.2474 7.09689 14.9116 7.43267 14.9116 7.84689V12.6939L14.92 12.8056C14.9531 13.0257 15.0829 13.222 15.2774 13.338L19.0474 15.587L19.1383 15.6332C19.4781 15.7781 19.8812 15.6532 20.0757 15.3271L20.122 15.2362C20.2669 14.8964 20.1419 14.4933 19.8158 14.2988L16.4112 12.267L16.4116 7.84689L16.4048 7.74512Z" fill="#A6A6A6"/>
</svg>
