<svg width="24" height="37" viewBox="0 0 24 37" fill="none" xmlns="http://www.w3.org/2000/svg">
<path d="M6.5 35C6.27333 34.62 6.02 34.2133 5.74 33.78C5.46 33.34 5.17 32.9 4.87 32.46C4.57 32.0133 4.26333 31.5833 3.95 31.17C3.64333 30.75 3.35 30.3733 3.07 30.04V35H1.83V28.07H2.86C3.12667 28.35 3.41333 28.6833 3.72 29.07C4.02667 29.45 4.33333 29.8467 4.64 30.26C4.95333 30.6733 5.25333 31.09 5.54 31.51C5.83333 31.9233 6.09333 32.31 6.32 32.67V28.07H7.57V35H6.5ZM8.71734 32.41C8.71734 31.95 8.78401 31.5467 8.91734 31.2C9.05734 30.8533 9.24068 30.5667 9.46734 30.34C9.69401 30.1067 9.95401 29.9333 10.2473 29.82C10.5407 29.7 10.8407 29.64 11.1473 29.64C11.8673 29.64 12.4273 29.8633 12.8273 30.31C13.234 30.7567 13.4373 31.4233 13.4373 32.31C13.4373 32.3767 13.434 32.4533 13.4273 32.54C13.4273 32.62 13.424 32.6933 13.4173 32.76H9.96734C10.0007 33.18 10.1473 33.5067 10.4073 33.74C10.674 33.9667 11.0573 34.08 11.5573 34.08C11.8507 34.08 12.1173 34.0533 12.3573 34C12.604 33.9467 12.7973 33.89 12.9373 33.83L13.0973 34.82C13.0307 34.8533 12.9373 34.89 12.8173 34.93C12.704 34.9633 12.5707 34.9933 12.4173 35.02C12.2707 35.0533 12.1107 35.08 11.9373 35.1C11.764 35.12 11.5873 35.13 11.4073 35.13C10.9473 35.13 10.5473 35.0633 10.2073 34.93C9.86734 34.79 9.58734 34.6 9.36734 34.36C9.14734 34.1133 8.98401 33.8267 8.87734 33.5C8.77068 33.1667 8.71734 32.8033 8.71734 32.41ZM12.2273 31.87C12.2273 31.7033 12.204 31.5467 12.1573 31.4C12.1107 31.2467 12.0407 31.1167 11.9473 31.01C11.8607 30.8967 11.7507 30.81 11.6173 30.75C11.4907 30.6833 11.3373 30.65 11.1573 30.65C10.9707 30.65 10.8073 30.6867 10.6673 30.76C10.5273 30.8267 10.4073 30.9167 10.3073 31.03C10.214 31.1433 10.1407 31.2733 10.0873 31.42C10.034 31.5667 9.99734 31.7167 9.97734 31.87H12.2273ZM17.6752 31.71C17.5219 32.2967 17.3552 32.87 17.1752 33.43C17.0019 33.9833 16.8286 34.5067 16.6552 35H15.6652C15.5319 34.6933 15.3919 34.3433 15.2452 33.95C15.0986 33.5567 14.9519 33.1367 14.8052 32.69C14.6586 32.2433 14.5119 31.7733 14.3652 31.28C14.2186 30.7867 14.0752 30.2833 13.9352 29.77H15.2152C15.2752 30.05 15.3452 30.3533 15.4252 30.68C15.5052 31 15.5886 31.33 15.6752 31.67C15.7619 32.0033 15.8519 32.33 15.9452 32.65C16.0386 32.97 16.1319 33.2633 16.2252 33.53C16.3252 33.2233 16.4219 32.9067 16.5152 32.58C16.6152 32.2533 16.7086 31.9267 16.7952 31.6C16.8819 31.2733 16.9619 30.9567 17.0352 30.65C17.1152 30.3367 17.1852 30.0433 17.2452 29.77H18.1752C18.2352 30.0433 18.3019 30.3367 18.3752 30.65C18.4486 30.9567 18.5252 31.2733 18.6052 31.6C18.6919 31.9267 18.7819 32.2533 18.8752 32.58C18.9752 32.9067 19.0752 33.2233 19.1752 33.53C19.2619 33.2633 19.3519 32.97 19.4452 32.65C19.5386 32.33 19.6286 32.0033 19.7152 31.67C19.8086 31.33 19.8952 31 19.9752 30.68C20.0552 30.3533 20.1252 30.05 20.1852 29.77H21.4352C21.2952 30.2833 21.1519 30.7867 21.0052 31.28C20.8586 31.7733 20.7119 32.2433 20.5652 32.69C20.4186 33.1367 20.2719 33.5567 20.1252 33.95C19.9786 34.3433 19.8352 34.6933 19.6952 35H18.7152C18.5419 34.5067 18.3619 33.9833 18.1752 33.43C17.9952 32.87 17.8286 32.2967 17.6752 31.71Z" fill="#A6A6A6"/>
<path fill-rule="evenodd" clip-rule="evenodd" d="M16.3588 2H7.6412C4.25586 2 2 4.4199 2 7.89317V16.1068C2 19.5833 4.24992 22 7.6412 22H16.3588C19.7501 22 22 19.5833 22 16.1068V7.89317C22 4.41665 19.7501 2 16.3588 2ZM7.6412 3.39535H16.3588C18.9563 3.39535 20.6047 5.16587 20.6047 7.89317V16.1068C20.6047 18.8341 18.9563 20.6047 16.3588 20.6047H7.6412C5.04372 20.6047 3.39535 18.8341 3.39535 16.1068V7.89317C3.39535 5.16949 5.04923 3.39535 7.6412 3.39535ZM12 7.88587C12.3532 7.88587 12.6451 8.14834 12.6913 8.48887L12.6977 8.58354V11.2935H15.4109C15.7962 11.2935 16.1085 11.6058 16.1085 11.9911C16.1085 12.3444 15.8461 12.6363 15.5055 12.6825L15.4109 12.6888H12.6977V15.3988C12.6977 15.7841 12.3853 16.0964 12 16.0964C11.6468 16.0964 11.3549 15.834 11.3087 15.4934L11.3023 15.3988V12.6888H8.58915C8.20383 12.6888 7.89147 12.3765 7.89147 11.9911C7.89147 11.6379 8.15394 11.346 8.49448 11.2998L8.58915 11.2935H11.3023V8.58354C11.3023 8.19823 11.6147 7.88587 12 7.88587Z" fill="#A6A6A6"/>
</svg>
