<svg width="31" height="37" viewBox="0 0 31 37" fill="none" xmlns="http://www.w3.org/2000/svg">
<path d="M2.79 28C3.79667 28 4.56667 28.1833 5.1 28.55C5.64 28.9167 5.91 29.49 5.91 30.27C5.91 30.6767 5.83667 31.0267 5.69 31.32C5.55 31.6067 5.34333 31.8433 5.07 32.03C4.79667 32.21 4.46333 32.3433 4.07 32.43C3.67667 32.5167 3.22667 32.56 2.72 32.56H2.09V35H0.83V28.17C1.12333 28.1033 1.44667 28.06 1.8 28.04C2.16 28.0133 2.49 28 2.79 28ZM2.88 29.09C2.56 29.09 2.29667 29.1 2.09 29.12V31.48H2.7C3.30667 31.48 3.77333 31.3967 4.1 31.23C4.42667 31.0567 4.59 30.7333 4.59 30.26C4.59 30.0333 4.54667 29.8433 4.46 29.69C4.37333 29.5367 4.25333 29.4167 4.1 29.33C3.94667 29.2433 3.76333 29.1833 3.55 29.15C3.34333 29.11 3.12 29.09 2.88 29.09ZM9.81547 30.86C9.71547 30.8267 9.57547 30.7933 9.39547 30.76C9.22214 30.72 9.0188 30.7 8.78547 30.7C8.65214 30.7 8.5088 30.7133 8.35547 30.74C8.2088 30.7667 8.10547 30.79 8.04547 30.81V35H6.83547V30.02C7.0688 29.9333 7.3588 29.8533 7.70547 29.78C8.0588 29.7 8.4488 29.66 8.87547 29.66C8.95547 29.66 9.0488 29.6667 9.15547 29.68C9.26214 29.6867 9.3688 29.7 9.47547 29.72C9.58214 29.7333 9.68547 29.7533 9.78547 29.78C9.88547 29.8 9.96547 29.82 10.0255 29.84L9.81547 30.86ZM15.4337 32.38C15.4337 32.7933 15.3737 33.17 15.2537 33.51C15.1337 33.85 14.9637 34.14 14.7437 34.38C14.5237 34.62 14.257 34.8067 13.9437 34.94C13.637 35.0733 13.297 35.14 12.9237 35.14C12.5503 35.14 12.2103 35.0733 11.9037 34.94C11.597 34.8067 11.3337 34.62 11.1137 34.38C10.8937 34.14 10.7203 33.85 10.5937 33.51C10.4737 33.17 10.4137 32.7933 10.4137 32.38C10.4137 31.9667 10.4737 31.5933 10.5937 31.26C10.7203 30.92 10.8937 30.63 11.1137 30.39C11.3403 30.15 11.607 29.9667 11.9137 29.84C12.2203 29.7067 12.557 29.64 12.9237 29.64C13.2903 29.64 13.627 29.7067 13.9337 29.84C14.247 29.9667 14.5137 30.15 14.7337 30.39C14.9537 30.63 15.1237 30.92 15.2437 31.26C15.3703 31.5933 15.4337 31.9667 15.4337 32.38ZM14.1937 32.38C14.1937 31.86 14.0803 31.45 13.8537 31.15C13.6337 30.8433 13.3237 30.69 12.9237 30.69C12.5237 30.69 12.2103 30.8433 11.9837 31.15C11.7637 31.45 11.6537 31.86 11.6537 32.38C11.6537 32.9067 11.7637 33.3233 11.9837 33.63C12.2103 33.9367 12.5237 34.09 12.9237 34.09C13.3237 34.09 13.6337 33.9367 13.8537 33.63C14.0803 33.3233 14.1937 32.9067 14.1937 32.38ZM21.7652 35H20.5552V29.77H21.7652V35ZM21.9052 28.24C21.9052 28.4667 21.8319 28.6467 21.6852 28.78C21.5386 28.9133 21.3652 28.98 21.1652 28.98C20.9586 28.98 20.7819 28.9133 20.6352 28.78C20.4886 28.6467 20.4152 28.4667 20.4152 28.24C20.4152 28.0067 20.4886 27.8233 20.6352 27.69C20.7819 27.5567 20.9586 27.49 21.1652 27.49C21.3652 27.49 21.5386 27.5567 21.6852 27.69C21.8319 27.8233 21.9052 28.0067 21.9052 28.24ZM18.6652 27.24C18.9186 27.24 19.1319 27.26 19.3052 27.3C19.4852 27.34 19.6252 27.38 19.7252 27.42L19.5352 28.4C19.4419 28.3667 19.3286 28.3367 19.1952 28.31C19.0686 28.2833 18.9286 28.27 18.7752 28.27C18.3752 28.27 18.0986 28.3767 17.9452 28.59C17.7986 28.8033 17.7252 29.08 17.7252 29.42V29.77H19.6452V30.78H17.7252V35H16.5152V29.4C16.5152 28.72 16.6919 28.19 17.0452 27.81C17.3986 27.43 17.9386 27.24 18.6652 27.24ZM24.9671 35.1C24.6071 35.0933 24.3071 35.0533 24.0671 34.98C23.8338 34.9067 23.6471 34.8033 23.5071 34.67C23.3671 34.53 23.2671 34.36 23.2071 34.16C23.1538 33.9533 23.1271 33.72 23.1271 33.46V27.44L24.3371 27.24V33.23C24.3371 33.3767 24.3471 33.5 24.3671 33.6C24.3938 33.7 24.4371 33.7867 24.4971 33.86C24.5571 33.9267 24.6371 33.98 24.7371 34.02C24.8438 34.0533 24.9771 34.08 25.1371 34.1L24.9671 35.1ZM25.6609 32.41C25.6609 31.95 25.7275 31.5467 25.8609 31.2C26.0009 30.8533 26.1842 30.5667 26.4109 30.34C26.6375 30.1067 26.8975 29.9333 27.1909 29.82C27.4842 29.7 27.7842 29.64 28.0909 29.64C28.8109 29.64 29.3709 29.8633 29.7709 30.31C30.1775 30.7567 30.3809 31.4233 30.3809 32.31C30.3809 32.3767 30.3775 32.4533 30.3709 32.54C30.3709 32.62 30.3675 32.6933 30.3609 32.76H26.9109C26.9442 33.18 27.0909 33.5067 27.3509 33.74C27.6175 33.9667 28.0009 34.08 28.5009 34.08C28.7942 34.08 29.0609 34.0533 29.3009 34C29.5475 33.9467 29.7409 33.89 29.8809 33.83L30.0409 34.82C29.9742 34.8533 29.8809 34.89 29.7609 34.93C29.6475 34.9633 29.5142 34.9933 29.3609 35.02C29.2142 35.0533 29.0542 35.08 28.8809 35.1C28.7075 35.12 28.5309 35.13 28.3509 35.13C27.8909 35.13 27.4909 35.0633 27.1509 34.93C26.8109 34.79 26.5309 34.6 26.3109 34.36C26.0909 34.1133 25.9275 33.8267 25.8209 33.5C25.7142 33.1667 25.6609 32.8033 25.6609 32.41ZM29.1709 31.87C29.1709 31.7033 29.1475 31.5467 29.1009 31.4C29.0542 31.2467 28.9842 31.1167 28.8909 31.01C28.8042 30.8967 28.6942 30.81 28.5609 30.75C28.4342 30.6833 28.2809 30.65 28.1009 30.65C27.9142 30.65 27.7509 30.6867 27.6109 30.76C27.4709 30.8267 27.3509 30.9167 27.2509 31.03C27.1575 31.1433 27.0842 31.2733 27.0309 31.42C26.9775 31.5667 26.9409 31.7167 26.9209 31.87H29.1709Z" fill="#A6A6A6"/>
<path fill-rule="evenodd" clip-rule="evenodd" d="M16.0043 2C13.0703 2 10.6918 4.38864 10.6918 7.33517C10.6918 10.2817 13.0703 12.6703 16.0043 12.6703C18.9383 12.6703 21.3168 10.2817 21.3168 7.33517C21.3168 4.38864 18.9383 2 16.0043 2ZM16.0043 3.44767C18.1422 3.44767 19.8753 5.18816 19.8753 7.33517C19.8753 9.48218 18.1422 11.2227 16.0043 11.2227C13.8664 11.2227 12.1333 9.48218 12.1333 7.33517C12.1333 5.18816 13.8664 3.44767 16.0043 3.44767ZM13.83 14.8209C13.0523 14.8749 12.2662 14.9859 11.4908 15.1521C9.99418 15.4604 8.79685 16.0763 8.28724 17.0999C8.09503 17.5002 7.99839 17.9288 8.00002 18.3627C7.99944 18.7935 8.0953 19.2227 8.28062 19.6153C8.76994 20.6271 9.8278 21.1997 11.2562 21.5171L11.5121 21.5705C12.2665 21.7407 13.0528 21.8553 13.8445 21.909C13.9119 21.9288 14.0726 21.9472 14.248 21.9561L14.3922 21.9615C14.4664 21.9633 14.5506 21.9637 14.676 21.9637C15.8138 22.0263 16.9934 22.0081 18.1675 21.9081C18.7932 21.8653 19.4231 21.7835 20.0477 21.6636L20.5151 21.5666C22.0576 21.2623 23.2126 20.6836 23.7186 19.6164C24.0937 18.8241 24.0937 17.9047 23.7188 17.1127C23.214 16.0483 22.0737 15.4744 20.5034 15.1509C19.8873 15.0194 19.2612 14.922 18.6307 14.8599L18.1697 14.8209C16.7259 14.6935 15.2738 14.6935 13.83 14.8209ZM18.0436 16.263L18.0562 16.264C18.7799 16.3149 19.4991 16.4165 20.2087 16.568C21.3751 16.8083 22.1667 17.2067 22.4171 17.7348C22.6057 18.133 22.6057 18.5958 22.4169 18.9944C22.1829 19.4879 21.472 19.8691 20.4445 20.1021L20.2195 20.1498C19.496 20.3112 18.7791 20.4152 18.0576 20.4647C16.9379 20.5599 15.8249 20.5771 14.7148 20.5171L14.3212 20.5103C14.2119 20.5048 14.1198 20.4942 14.0345 20.4771C13.3587 20.4261 12.7507 20.3454 12.1603 20.2283L11.8078 20.1537C10.6377 19.9244 9.83915 19.5243 9.58024 18.989C9.48964 18.797 9.44125 18.5803 9.44154 18.3609C9.44073 18.1428 9.48848 17.931 9.58118 17.7379C9.83293 17.2324 10.6792 16.7971 11.7861 16.569C12.5007 16.4159 13.2196 16.3144 13.9429 16.264C15.316 16.143 16.6837 16.143 18.0436 16.263Z" fill="#A6A6A6"/>
</svg>
