<svg width="27" height="37" viewBox="0 0 27 37" fill="none" xmlns="http://www.w3.org/2000/svg">
<path d="M2.51 34.06C2.96333 34.06 3.29333 33.9833 3.5 33.83C3.70667 33.6767 3.81 33.46 3.81 33.18C3.81 33.0133 3.77333 32.87 3.7 32.75C3.63333 32.63 3.53333 32.5233 3.4 32.43C3.27333 32.33 3.11667 32.24 2.93 32.16C2.74333 32.0733 2.53 31.99 2.29 31.91C2.05 31.8233 1.81667 31.73 1.59 31.63C1.37 31.5233 1.17333 31.3933 1 31.24C0.833333 31.0867 0.696667 30.9033 0.59 30.69C0.49 30.4767 0.44 30.22 0.44 29.92C0.44 29.2933 0.656667 28.8033 1.09 28.45C1.52333 28.09 2.11333 27.91 2.86 27.91C3.29333 27.91 3.67667 27.96 4.01 28.06C4.35 28.1533 4.61667 28.2567 4.81 28.37L4.42 29.39C4.19333 29.2633 3.94333 29.1667 3.67 29.1C3.40333 29.0333 3.12667 29 2.84 29C2.5 29 2.23333 29.07 2.04 29.21C1.85333 29.35 1.76 29.5467 1.76 29.8C1.76 29.9533 1.79 30.0867 1.85 30.2C1.91667 30.3067 2.00667 30.4033 2.12 30.49C2.24 30.5767 2.37667 30.6567 2.53 30.73C2.69 30.8033 2.86333 30.8733 3.05 30.94C3.37667 31.06 3.66667 31.1833 3.92 31.31C4.18 31.43 4.39667 31.5767 4.57 31.75C4.75 31.9167 4.88667 32.1167 4.98 32.35C5.07333 32.5767 5.12 32.8533 5.12 33.18C5.12 33.8067 4.89667 34.2933 4.45 34.64C4.01 34.98 3.36333 35.15 2.51 35.15C2.22333 35.15 1.96 35.13 1.72 35.09C1.48667 35.0567 1.27667 35.0133 1.09 34.96C0.91 34.9067 0.753333 34.8533 0.62 34.8C0.486667 34.74 0.38 34.6867 0.3 34.64L0.67 33.61C0.85 33.71 1.09333 33.81 1.4 33.91C1.70667 34.01 2.07667 34.06 2.51 34.06ZM7.84539 34.15C8.21872 34.15 8.50206 34.13 8.69539 34.09V32.75C8.62872 32.73 8.53206 32.71 8.40539 32.69C8.27872 32.67 8.13872 32.66 7.98539 32.66C7.85206 32.66 7.71539 32.67 7.57539 32.69C7.44206 32.71 7.31872 32.7467 7.20539 32.8C7.09872 32.8533 7.01206 32.93 6.94539 33.03C6.87872 33.1233 6.84539 33.2433 6.84539 33.39C6.84539 33.6767 6.93539 33.8767 7.11539 33.99C7.29539 34.0967 7.53872 34.15 7.84539 34.15ZM7.74539 29.64C8.14539 29.64 8.48206 29.69 8.75539 29.79C9.02872 29.89 9.24539 30.03 9.40539 30.21C9.57206 30.39 9.68872 30.61 9.75539 30.87C9.82872 31.1233 9.86539 31.4033 9.86539 31.71V34.88C9.67872 34.92 9.39539 34.9667 9.01539 35.02C8.64206 35.08 8.21872 35.11 7.74539 35.11C7.43206 35.11 7.14539 35.08 6.88539 35.02C6.62539 34.96 6.40206 34.8633 6.21539 34.73C6.03539 34.5967 5.89206 34.4233 5.78539 34.21C5.68539 33.9967 5.63539 33.7333 5.63539 33.42C5.63539 33.12 5.69206 32.8667 5.80539 32.66C5.92539 32.4533 6.08539 32.2867 6.28539 32.16C6.48539 32.0267 6.71539 31.9333 6.97539 31.88C7.24206 31.82 7.51872 31.79 7.80539 31.79C7.93872 31.79 8.07872 31.8 8.22539 31.82C8.37206 31.8333 8.52872 31.86 8.69539 31.9V31.7C8.69539 31.56 8.67872 31.4267 8.64539 31.3C8.61206 31.1733 8.55206 31.0633 8.46539 30.97C8.38539 30.87 8.27539 30.7933 8.13539 30.74C8.00206 30.6867 7.83206 30.66 7.62539 30.66C7.34539 30.66 7.08872 30.68 6.85539 30.72C6.62206 30.76 6.43206 30.8067 6.28539 30.86L6.13539 29.88C6.28872 29.8267 6.51206 29.7733 6.80539 29.72C7.09872 29.6667 7.41206 29.64 7.74539 29.64ZM12.3952 35C12.0619 34.3133 11.7186 33.5267 11.3652 32.64C11.0186 31.7467 10.7019 30.79 10.4152 29.77H11.7052C11.7786 30.0633 11.8619 30.38 11.9552 30.72C12.0552 31.0533 12.1586 31.39 12.2652 31.73C12.3786 32.0633 12.4919 32.39 12.6052 32.71C12.7252 33.0233 12.8352 33.3067 12.9352 33.56C13.0352 33.3067 13.1419 33.0233 13.2552 32.71C13.3686 32.39 13.4786 32.0633 13.5852 31.73C13.6986 31.39 13.8052 31.0533 13.9052 30.72C14.0052 30.38 14.0919 30.0633 14.1652 29.77H15.4152C15.1286 30.79 14.8086 31.7467 14.4552 32.64C14.1086 33.5267 13.7686 34.3133 13.4352 35H12.3952ZM15.7467 32.41C15.7467 31.95 15.8134 31.5467 15.9467 31.2C16.0867 30.8533 16.2701 30.5667 16.4967 30.34C16.7234 30.1067 16.9834 29.9333 17.2767 29.82C17.5701 29.7 17.8701 29.64 18.1767 29.64C18.8967 29.64 19.4567 29.8633 19.8567 30.31C20.2634 30.7567 20.4667 31.4233 20.4667 32.31C20.4667 32.3767 20.4634 32.4533 20.4567 32.54C20.4567 32.62 20.4534 32.6933 20.4467 32.76H16.9967C17.0301 33.18 17.1767 33.5067 17.4367 33.74C17.7034 33.9667 18.0867 34.08 18.5867 34.08C18.8801 34.08 19.1467 34.0533 19.3867 34C19.6334 33.9467 19.8267 33.89 19.9667 33.83L20.1267 34.82C20.0601 34.8533 19.9667 34.89 19.8467 34.93C19.7334 34.9633 19.6001 34.9933 19.4467 35.02C19.3001 35.0533 19.1401 35.08 18.9667 35.1C18.7934 35.12 18.6167 35.13 18.4367 35.13C17.9767 35.13 17.5767 35.0633 17.2367 34.93C16.8967 34.79 16.6167 34.6 16.3967 34.36C16.1767 34.1133 16.0134 33.8267 15.9067 33.5C15.8001 33.1667 15.7467 32.8033 15.7467 32.41ZM19.2567 31.87C19.2567 31.7033 19.2334 31.5467 19.1867 31.4C19.1401 31.2467 19.0701 31.1167 18.9767 31.01C18.8901 30.8967 18.7801 30.81 18.6467 30.75C18.5201 30.6833 18.3667 30.65 18.1867 30.65C18.0001 30.65 17.8367 30.6867 17.6967 30.76C17.5567 30.8267 17.4367 30.9167 17.3367 31.03C17.2434 31.1433 17.1701 31.2733 17.1167 31.42C17.0634 31.5667 17.0267 31.7167 17.0067 31.87H19.2567ZM22.5346 32.37C22.5346 32.9033 22.6613 33.3233 22.9146 33.63C23.1679 33.93 23.5179 34.08 23.9646 34.08C24.1579 34.08 24.3213 34.0733 24.4546 34.06C24.5946 34.04 24.7079 34.02 24.7946 34V31C24.6879 30.9267 24.5446 30.86 24.3646 30.8C24.1913 30.7333 24.0046 30.7 23.8046 30.7C23.3646 30.7 23.0413 30.85 22.8346 31.15C22.6346 31.45 22.5346 31.8567 22.5346 32.37ZM26.0046 34.84C25.7646 34.9133 25.4613 34.98 25.0946 35.04C24.7346 35.1 24.3546 35.13 23.9546 35.13C23.5413 35.13 23.1713 35.0667 22.8446 34.94C22.5179 34.8133 22.2379 34.6333 22.0046 34.4C21.7779 34.16 21.6013 33.8733 21.4746 33.54C21.3546 33.2 21.2946 32.82 21.2946 32.4C21.2946 31.9867 21.3446 31.6133 21.4446 31.28C21.5513 30.94 21.7046 30.65 21.9046 30.41C22.1046 30.17 22.3479 29.9867 22.6346 29.86C22.9213 29.7267 23.2513 29.66 23.6246 29.66C23.8779 29.66 24.1013 29.69 24.2946 29.75C24.4879 29.81 24.6546 29.8767 24.7946 29.95V27.44L26.0046 27.24V34.84Z" fill="#A6A6A6"/>
<path fill-rule="evenodd" clip-rule="evenodd" d="M11.0143 2H16.9857C20.0482 2 22 3.43503 22 6.25765V20.3309C22 20.7736 21.8285 21.1982 21.5232 21.5112C21.2179 21.8242 20.8038 22.0001 20.3608 22C20.0965 21.9957 19.8368 21.9291 19.5863 21.7971L13.974 18.6635L8.38442 21.8037C7.7112 22.1624 6.89545 21.9969 6.38431 21.3975L6.28627 21.2719L6.19263 21.1174C6.07042 20.8782 6.00448 20.613 6 20.3309V6.43434C6 3.49929 7.90915 2 11.0143 2ZM16.9857 3.44775H11.0143C8.61925 3.44775 7.41205 4.39579 7.41205 6.43434L7.41195 20.3189C7.41223 20.3359 7.414 20.3528 7.4154 20.3662C7.41764 20.3876 7.41894 20.4 7.41172 20.3897L7.44919 20.4519C7.51373 20.5421 7.63485 20.5715 7.71962 20.5265L13.3068 17.3883C13.7233 17.1576 14.225 17.1576 14.6435 17.3894L20.2463 20.5173C20.2887 20.5397 20.3355 20.5517 20.372 20.5523C20.4293 20.5523 20.4842 20.529 20.5247 20.4875C20.5652 20.446 20.588 20.3897 20.588 20.3309V6.25765C20.588 4.35788 19.35 3.44775 16.9857 3.44775Z" fill="#A6A6A6"/>
</svg>
